<svg xmlns="http://www.w3.org/2000/svg" width="1024" height="1024" viewBox="0 0 1024 1024">
  <rect width="1024" height="1024" fill="#000000" />
  <g filter="url(#shadow)">
    
  <g transform="translate(512,900) rotate(-30) translate(-160,-470)">
    <rect x="0" y="0" width="320" height="470" rx="28" ry="28"
          fill="#fbfbf7" stroke="#cfcfc8" stroke-width="3" />
    <g transform="translate(160,235) scale(1.85) translate(-50,-50)">
      <path d="M50,6 C50,6 16,38 16,60 C16,74 30,79 41,72 C39,82 34,89 27,93 L73,93 C66,89 61,82 59,72 C70,79 84,74 84,60 C84,38 50,6 50,6 Z" fill="#1a1a1a" />
    </g>
    
    <text x="46" y="64" font-family="Arial, Helvetica, sans-serif" font-weight="700"
          font-size="58" fill="#1a1a1a" text-anchor="middle">A</text>
    <g transform="translate(46,100) scale(0.42) translate(-50,-50)">
      <path d="M50,6 C50,6 16,38 16,60 C16,74 30,79 41,72 C39,82 34,89 27,93 L73,93 C66,89 61,82 59,72 C70,79 84,74 84,60 C84,38 50,6 50,6 Z" fill="#1a1a1a" />
    </g>
    <g transform="rotate(180 160 235)">
    <text x="46" y="64" font-family="Arial, Helvetica, sans-serif" font-weight="700"
          font-size="58" fill="#1a1a1a" text-anchor="middle">A</text>
    <g transform="translate(46,100) scale(0.42) translate(-50,-50)">
      <path d="M50,6 C50,6 16,38 16,60 C16,74 30,79 41,72 C39,82 34,89 27,93 L73,93 C66,89 61,82 59,72 C70,79 84,74 84,60 C84,38 50,6 50,6 Z" fill="#1a1a1a" />
    </g></g>
  </g>

  <g transform="translate(512,900) rotate(-10) translate(-160,-470)">
    <rect x="0" y="0" width="320" height="470" rx="28" ry="28"
          fill="#fbfbf7" stroke="#cfcfc8" stroke-width="3" />
    <g transform="translate(160,235) scale(1.85) translate(-50,-50)">
      <path d="M50,90 C50,90 12,58 12,33 C12,17 26,11 38,20 C44,24 48,32 50,38 C52,32 56,24 62,20 C74,11 88,17 88,33 C88,58 50,90 50,90 Z" fill="#d6243b" />
    </g>
    
    <text x="46" y="64" font-family="Arial, Helvetica, sans-serif" font-weight="700"
          font-size="58" fill="#d6243b" text-anchor="middle">K</text>
    <g transform="translate(46,100) scale(0.42) translate(-50,-50)">
      <path d="M50,90 C50,90 12,58 12,33 C12,17 26,11 38,20 C44,24 48,32 50,38 C52,32 56,24 62,20 C74,11 88,17 88,33 C88,58 50,90 50,90 Z" fill="#d6243b" />
    </g>
    <g transform="rotate(180 160 235)">
    <text x="46" y="64" font-family="Arial, Helvetica, sans-serif" font-weight="700"
          font-size="58" fill="#d6243b" text-anchor="middle">K</text>
    <g transform="translate(46,100) scale(0.42) translate(-50,-50)">
      <path d="M50,90 C50,90 12,58 12,33 C12,17 26,11 38,20 C44,24 48,32 50,38 C52,32 56,24 62,20 C74,11 88,17 88,33 C88,58 50,90 50,90 Z" fill="#d6243b" />
    </g></g>
  </g>

  <g transform="translate(512,900) rotate(10) translate(-160,-470)">
    <rect x="0" y="0" width="320" height="470" rx="28" ry="28"
          fill="#fbfbf7" stroke="#cfcfc8" stroke-width="3" />
    <g transform="translate(160,235) scale(1.85) translate(-50,-50)">
      <path d="M50,8 C40,8 32,16 32,26 C32,33 36,39 42,42 C33,39 23,42 23,54 C23,65 33,71 43,67 C41,78 35,88 28,93 L72,93 C65,88 59,78 57,67 C67,71 77,65 77,54 C77,42 67,39 58,42 C64,39 68,33 68,26 C68,16 60,8 50,8 Z" fill="#1a1a1a" />
    </g>
    
    <text x="46" y="64" font-family="Arial, Helvetica, sans-serif" font-weight="700"
          font-size="58" fill="#1a1a1a" text-anchor="middle">7</text>
    <g transform="translate(46,100) scale(0.42) translate(-50,-50)">
      <path d="M50,8 C40,8 32,16 32,26 C32,33 36,39 42,42 C33,39 23,42 23,54 C23,65 33,71 43,67 C41,78 35,88 28,93 L72,93 C65,88 59,78 57,67 C67,71 77,65 77,54 C77,42 67,39 58,42 C64,39 68,33 68,26 C68,16 60,8 50,8 Z" fill="#1a1a1a" />
    </g>
    <g transform="rotate(180 160 235)">
    <text x="46" y="64" font-family="Arial, Helvetica, sans-serif" font-weight="700"
          font-size="58" fill="#1a1a1a" text-anchor="middle">7</text>
    <g transform="translate(46,100) scale(0.42) translate(-50,-50)">
      <path d="M50,8 C40,8 32,16 32,26 C32,33 36,39 42,42 C33,39 23,42 23,54 C23,65 33,71 43,67 C41,78 35,88 28,93 L72,93 C65,88 59,78 57,67 C67,71 77,65 77,54 C77,42 67,39 58,42 C64,39 68,33 68,26 C68,16 60,8 50,8 Z" fill="#1a1a1a" />
    </g></g>
  </g>

  <g transform="translate(512,900) rotate(30) translate(-160,-470)">
    <rect x="0" y="0" width="320" height="470" rx="28" ry="28"
          fill="#fbfbf7" stroke="#cfcfc8" stroke-width="3" />
    <g transform="translate(160,235) scale(1.85) translate(-50,-50)">
      <path d="M50,6 L86,50 L50,94 L14,50 Z" fill="#d6243b" />
    </g>
    
    <text x="46" y="64" font-family="Arial, Helvetica, sans-serif" font-weight="700"
          font-size="58" fill="#d6243b" text-anchor="middle">Q</text>
    <g transform="translate(46,100) scale(0.42) translate(-50,-50)">
      <path d="M50,6 L86,50 L50,94 L14,50 Z" fill="#d6243b" />
    </g>
    <g transform="rotate(180 160 235)">
    <text x="46" y="64" font-family="Arial, Helvetica, sans-serif" font-weight="700"
          font-size="58" fill="#d6243b" text-anchor="middle">Q</text>
    <g transform="translate(46,100) scale(0.42) translate(-50,-50)">
      <path d="M50,6 L86,50 L50,94 L14,50 Z" fill="#d6243b" />
    </g></g>
  </g>
  </g>
  <defs>
    <filter id="shadow" x="-20%" y="-20%" width="140%" height="140%">
      <feDropShadow dx="0" dy="8" stdDeviation="10" flood-color="#000" flood-opacity="0.55" />
    </filter>
  </defs>
</svg>